<?xml version="1.0" standalone="no"?>
<!DOCTYPE svg PUBLIC "-//W3C//DTD SVG 20010904//EN"
 "http://www.w3.org/TR/2001/REC-SVG-20010904/DTD/svg10.dtd">
<svg version="1.0" xmlns="http://www.w3.org/2000/svg"
 width="926.000000pt" height="580.000000pt" viewBox="0 0 926.000000 580.000000"
 preserveAspectRatio="xMidYMid meet">

<g transform="translate(0.000000,580.000000) scale(0.100000,-0.100000)"
fill="#000000" stroke="none">
<path d="M502 5108 l3 -283 307 -3 308 -2 2 -843 3 -842 302 -3 303 -2 2 842
3 843 313 3 312 2 0 285 0 285 -930 0 -930 0 2 -282z"/>
<path d="M2660 4260 l0 -1130 310 0 310 0 0 425 0 425 295 0 295 0 0 -425 0
-425 310 0 310 0 0 1130 0 1130 -310 0 -310 0 -2 -417 -3 -418 -289 -3 c-225
-2 -291 1 -298 10 -4 7 -8 196 -8 421 l0 407 -305 0 -305 0 0 -1130z"/>
<path d="M4800 4260 l0 -1130 715 0 715 0 -2 283 -3 282 -402 3 -403 2 0 135
0 135 328 2 327 3 0 285 0 285 -332 3 -333 2 0 135 0 135 398 2 397 3 0 280 0
280 -702 3 -703 2 0 -1130z"/>
<path d="M7925 5186 c-423 -137 -493 -705 -117 -944 340 -217 792 35 792 443
0 142 -52 265 -155 369 -139 141 -338 191 -520 132z m274 -144 c109 -32 212
-140 246 -256 50 -171 -38 -362 -203 -443 -51 -25 -68 -28 -157 -28 -87 0
-107 3 -157 27 -114 53 -195 161 -219 291 -34 189 113 394 308 426 57 10 109
5 182 -17z"/>
<path d="M7910 4685 l0 -246 53 3 52 3 1 80 c2 76 3 80 25 80 18 0 32 -16 68
-80 l46 -80 63 -3 c46 -2 62 0 62 10 0 7 -23 49 -51 92 l-51 80 24 18 c13 9
26 18 30 18 11 0 48 86 48 113 0 44 -30 106 -64 130 -28 20 -45 22 -168 25
l-138 4 0 -247z m234 123 c38 -54 -2 -108 -80 -108 -38 0 -43 3 -48 28 -3 15
-4 38 -2 52 2 14 4 31 5 38 1 8 19 12 55 12 45 0 58 -4 70 -22z"/>
<path d="M1220 2824 c-108 -20 -186 -40 -249 -65 -169 -67 -311 -197 -386
-354 -78 -163 -78 -158 -82 -790 -5 -591 1 -702 39 -817 74 -228 234 -393 455
-472 127 -45 233 -60 408 -60 305 1 512 71 673 227 102 98 158 199 193 342 17
72 19 120 19 468 l0 387 -450 0 -450 0 2 -242 3 -243 139 -3 138 -3 -4 -112
c-5 -122 -20 -172 -66 -221 -44 -47 -97 -66 -187 -66 -94 0 -144 19 -198 75
-72 74 -72 73 -72 685 l0 545 27 51 c36 68 86 110 155 130 102 30 219 1 280
-69 37 -42 53 -91 62 -192 3 -38 9 -69 14 -67 4 1 142 2 307 2 l300 0 0 116
c0 142 -19 232 -71 342 -92 191 -284 328 -545 387 -67 16 -398 29 -454 19z"/>
<path d="M2600 1561 l0 -1231 310 0 310 0 2 413 3 412 105 3 105 2 130 -316
c72 -174 148 -359 170 -412 l40 -97 333 -3 c279 -2 332 0 332 12 0 7 -87 210
-193 450 l-194 436 48 31 c82 52 191 177 237 271 67 138 77 193 76 423 0 175
-3 210 -22 279 -75 269 -258 453 -528 528 -77 21 -97 22 -671 26 l-593 3 0
-1230z m1007 677 c58 -15 116 -67 143 -130 19 -43 23 -72 24 -158 1 -132 -18
-195 -80 -256 -63 -64 -113 -75 -310 -72 l-159 3 -3 305 c-1 168 0 310 2 316
5 14 324 8 383 -8z"/>
<path d="M4740 1560 l0 -1230 308 2 307 3 3 1228 2 1227 -310 0 -310 0 0
-1230z"/>
<path d="M5660 1560 l0 -1230 303 2 302 3 3 458 2 457 330 0 330 0 0 275 0
275 -330 0 -330 0 0 205 0 205 383 2 382 3 3 288 2 287 -690 0 -690 0 0 -1230z"/>
<path d="M7280 1560 l0 -1230 693 2 692 3 0 285 0 285 -388 3 -387 2 2 198 3
197 320 2 320 2 3 280 2 281 -325 0 -325 0 0 175 0 175 375 0 375 0 0 285 0
285 -680 0 -680 0 0 -1230z"/>
</g>
</svg>
